<mxfile host="app.diagrams.net" modified="2024-02-04T03:35:12.303Z" agent="Mozilla/5.0 (Windows NT 10.0; Win64; x64) AppleWebKit/537.36 (KHTML, like Gecko) Chrome/119.0.6045.160 Safari/537.36" version="23.1.1" etag="H50pTs89g61hoaYrGYuD" type="github">
  <diagram name="第 1 页" id="ARjX00sdIEn7tqYjPhTu">
    <mxGraphModel>
      <root>
        <mxCell id="0" />
        <mxCell id="1" parent="0" />
      </root>
    </mxGraphModel>
  </diagram>
</mxfile>
